<svg width="600" height="600" xmlns="http://www.w3.org/2000/svg" version="1.0" preserveAspectRatio="xMidYMid meet">
 <g>
  <title>Layer 1</title>
  <path id="svg_32" d="m396.38561,282.65091l34.93991,4.09622l4.81928,27.71086l-21.68676,6.0241l-19.27712,-6.0241l9.63856,-37.34942l0,-34.93978l-16.86748,-32.53014l-44.57834,-2.40964l6.0241,165.06032l89.15667,-7.22892l38.55424,-43.37352l-15.66266,-66.26509l-63.85545,-26.50604" opacity="NaN" stroke-width="0" stroke="#000" fill="#04bbe0"/>
  <path id="svg_29" d="m297.59037,279.03645l-48.19266,-0.72306l1.20482,30.1205l37.34942,7.22892l-16.86748,-48.1928l33.73496,-27.71086l30.1205,33.73496l-12.0482,66.26509l-38.55424,24.0964l-57.83135,-6.0241l-28.91568,-56.62653l14.45784,-51.80726l56.62653,-18.0723l54.2169,15.66266l-25.30136,32.04837z" opacity="NaN" stroke-width="0" stroke="#000" fill="#4c5114"/>
  <path id="svg_27" d="m107.22883,277.83163l21.6869,1.68658l10.84338,27.71086l-18.0723,7.22892l-25.30122,-22.89158l24.0964,-19.27712l-4.81928,-42.1687l-48.1928,18.0723l-10.84338,66.26509l25.30122,33.73496l9.63856,15.66266l-4.81928,28.91568l53.01208,7.22892l38.55424,-34.93978l6.0241,-63.85545l-2.40964,-68.67473l-85.54221,-1.20482l10.84323,46.50621z" opacity="NaN" stroke-width="0" stroke="#000" fill="#04bbe0"/>
  <path id="svg_22" d="m495.18084,232.04847l-2.4095,131.80713l49.39762,2.40964l2.40964,-134.93983l-49.39775,0.72306z" opacity="NaN" stroke-width="0" stroke="#000" fill="#4c5114"/>
  <path id="svg_18" d="m198.79514,311.56659l32.53028,76.38542l42.1687,28.91568l65.06027,16.86748l72.28919,-28.91568l21.68676,-32.53014l32.53014,-32.53014l20.48194,-30.1205l3.61446,39.75906l-19.27712,65.06027l-49.39762,40.96388l-61.44581,30.1205l-49.39762,3.61446l-69.87955,-18.0723l-46.98798,-30.1205l-33.73496,-42.1687l-4.81928,-10.84338l24.0964,-30.1205l12.0482,-20.48194l8.4336,-25.78298z" opacity="NaN" stroke-width="0" stroke="#000" fill="#14e579"/>
  <path stroke-width="0" id="svg_17" d="m137.34932,223.61473l21.6869,-40.48211l45.78316,-45.78316l60.24099,-28.91568l60.24099,-7.22892l74.69883,12.0482l42.1687,21.68676l49.39762,45.78316l-10.84338,20.48194l-80.72293,-21.68676l-51.80726,-22.89158l-49.39762,2.40964l-38.55424,26.50604l-33.73496,33.73496l-19.27712,39.75906l-8.43374,28.91568l-13.25302,-1.20482l-2.40964,-50.60244l-45.7833,-12.52996z" opacity="NaN" stroke="#000" fill="#14e579"/>
  <g stroke-width="99" transform="translate(0, 1024) scale(0.1, -0.1)" fill="#000000" id="svg_1">
   <path d="m2933.8554,9318.94019c-14,-2 -59,-9 -100,-15c-288,-41 -625,-191 -885,-394c-118,-92 -290,-275 -373,-397c-75,-111 -159,-272 -206,-393c-49,-128 -33,-115 -141,-115c-53,0 -131,-7 -173,-15c-152,-30 -340,-147 -435,-270c-85,-111 -144,-265 -154,-400c-13,-193 81,-431 226,-568l51,-48l0,-265l0,-264l223,-2c344,-4 376,-2 514,38c19,5 28,-3 59,-52c110,-172 240,-323 387,-450c141,-121 232,-181 402,-265c172,-84 368,-150 540,-180c193,-34 465,-32 660,5c537,102 980,391 1252,816c73,114 126,218 164,320c18,50 32,74 41,71c7,-3 121,-9 252,-13c177,-7 247,-6 268,3l28,11l0,762c0,579 -3,765 -12,774c-9,9 -91,12 -305,12l-294,0l-24,-25l-25,-24l0,-263l-1,-263l-38,72c-116,218 -296,371 -506,429c-38,10 -103,17 -175,18l-115,1l-3,148l-3,147l-177,0c-97,0 -216,3 -263,7c-103,7 -148,0 -177,-28c-22,-19 -22,-25 -22,-332l-1,-312l-21,40c-65,127 -234,271 -390,336c-198,81 -430,77 -627,-12c-35,-16 -66,-28 -68,-26c-5,6 78,139 134,214c72,96 206,221 295,275c208,126 453,187 698,175c192,-10 299,-51 600,-232c180,-108 338,-185 478,-232c89,-31 121,-37 192,-37c72,-1 94,3 142,26c109,51 198,173 198,270c0,101 -51,159 -325,368c-262,200 -253,194 -331,233c-99,50 -136,65 -238,91c-50,13 -142,47 -204,75c-124,57 -296,110 -442,136c-90,16 -485,30 -550,19zm371,-175c181,-18 383,-71 563,-146c33,-14 131,-49 219,-78c88,-30 162,-56 164,-59c3,-3 -2,-34 -12,-70c-31,-113 -11,-182 62,-212c75,-32 161,-4 189,61c8,19 16,35 19,35c5,0 313,-226 333,-245c12,-10 10,-19 -11,-51c-36,-56 -72,-92 -100,-99c-30,-8 -122,16 -253,65c-136,51 -262,113 -419,206c-289,170 -412,216 -630,234c-213,17 -458,-28 -661,-120c-175,-80 -383,-251 -510,-420c-106,-141 -236,-426 -268,-590c-33,-162 -46,-127 -46,120l0,220l-205,0c-172,0 -205,2 -205,14c0,23 49,155 83,221c102,204 321,455 523,601c102,73 308,179 437,223c236,82 495,114 728,90zm563,-1120c3,-34 6,-115 6,-180l0,-118l54,19c182,62 380,44 522,-48c189,-124 279,-332 244,-567c-31,-208 -160,-373 -350,-451c-59,-24 -62,-24 -410,-24l-350,0l0,353c0,195 -3,516 -7,715l-6,362l145,0l145,0l7,-61zm-999,-201c144,-47 288,-165 349,-287c46,-90 60,-158 60,-286c0,-104 -3,-130 -26,-192c-65,-182 -197,-313 -378,-375c-96,-33 -266,-33 -369,1c-148,49 -274,157 -345,296c-66,130 -83,265 -51,413c17,83 27,108 78,189c64,104 194,203 317,242c108,34 261,34 365,-1zm2483,-580l2,-598l-145,0l-145,0l0,600l0,601l143,-3l142,-3l3,-597zm-3770,556l162,-6l0,-483c0,-278 -4,-505 -10,-536c-13,-71 -69,-182 -122,-243c-57,-66 -144,-121 -240,-151c-70,-22 -96,-25 -236,-25c-86,0 -167,3 -179,6c-22,6 -23,11 -23,121c0,114 0,114 23,107c121,-39 274,-47 349,-17c130,50 202,152 155,217c-12,16 -18,16 -102,-10c-182,-54 -348,-33 -473,60c-99,74 -164,163 -203,277c-28,82 -30,226 -5,314c57,196 211,337 407,374c43,8 163,7 497,-5zm3269,-971c-20,-355 -201,-698 -512,-976c-299,-266 -657,-410 -1075,-432c-395,-22 -791,99 -1113,338c-168,125 -369,347 -451,500l-30,54l67,67c116,116 182,251 211,434c7,45 16,85 19,88c3,3 13,-19 22,-48c27,-81 115,-263 175,-358c164,-261 329,-421 557,-538c198,-101 370,-142 604,-142c466,0 837,202 1074,585c47,77 72,105 137,156c44,35 109,95 145,133c67,74 163,210 163,233c0,7 3,13 6,13c4,0 4,-48 1,-107zm-1447,-145c0,-111 3,-204 6,-207c3,-3 183,-7 400,-9c217,-1 394,-6 394,-10c0,-4 -23,-37 -51,-74c-133,-178 -326,-300 -566,-360c-119,-30 -368,-32 -488,-5c-251,57 -437,160 -603,331c-86,89 -156,175 -148,183c2,2 43,-9 92,-24c81,-24 104,-27 249,-27c176,-1 224,9 340,66c127,64 282,201 339,300c11,21 24,38 28,38c4,0 7,-91 8,-202z" id="svg_2"/>
   <path d="m4053.8554,7485.94019c-122,-38 -200,-144 -200,-275c0,-117 68,-215 177,-256c116,-43 226,-19 314,69c93,94 114,215 55,316c-34,58 -107,120 -163,139c-48,17 -140,20 -183,7zm172,-210c49,-55 29,-126 -43,-155c-123,-50 -212,106 -101,177c42,27 109,17 144,-22z" id="svg_3"/>
   <path d="m2559.8554,7530.94019c-62,-31 -120,-88 -148,-146c-34,-67 -32,-187 4,-255c59,-113 152,-170 278,-169c114,1 214,67 272,178c67,130 2,302 -144,381c-43,24 -68,29 -133,32c-69,3 -87,0 -129,-21zm194,-185c14,-10 32,-37 40,-60c14,-39 13,-45 -5,-79c-12,-22 -35,-44 -58,-56c-34,-16 -42,-17 -75,-4c-101,38 -112,188 -15,218c37,12 82,4 113,-19z" id="svg_4"/>
   <path d="m1123.8554,7535.94019c-71,-23 -141,-83 -176,-151c-45,-88 -10,-237 72,-309c80,-70 205,-84 303,-34c198,101 193,387 -8,476c-49,21 -151,31 -191,18zm143,-201c59,-66 23,-150 -65,-150c-32,0 -47,7 -74,34c-40,40 -43,72 -13,110c43,54 105,57 152,6z" id="svg_5"/>
  </g>
  <path stroke-dasharray="2,2" stroke-width="0" d="m480.72299,191.08459c-1.2048,0 -7.35782,1.10724 -12.04819,0c-5.24399,-1.23793 -10.17838,-2.91904 -13.25302,-4.81927c-2.29172,-1.41635 -4.44992,-4.16724 -6.02411,-4.81927c-2.22623,-0.92212 -5.26749,-0.464 -9.63855,-3.61447c-1.38226,-0.99628 -3.694,-1.05742 -6.02411,-2.40964c-3.7572,-2.18039 -6.20749,-2.69232 -8.43375,-3.61446c-3.14835,-1.30409 -3.96735,-3.96735 -4.81927,-4.81927c-1.70386,-1.70387 -6.41403,-3.03636 -8.43372,-4.81929c-3.25665,-2.87489 -5.7984,-6.27327 -8.43375,-8.43373c-3.35944,-2.75407 -7.08258,-5.41382 -10.84338,-6.02411c-1.18927,-0.19299 -2.23221,-2.61818 -3.61447,-3.61446c-2.18555,-1.57524 -1.55771,-1.55771 -2.40964,-2.40964c-0.85193,-0.85193 -3.61444,-1.20482 -3.61444,-2.40964l-1.20483,-1.20482l0,0l-1.2048,0" id="svg_14" stroke="#000" fill="none"/>
  <path id="svg_23" d="m184.3373,247.71113l-45.78301,36.62636l45.78301,-36.62636z" opacity="NaN" stroke-width="0" stroke="#000" fill="#14e579"/>
  <path id="svg_26" d="m126.50594,294.69911" opacity="NaN" stroke-width="0" stroke="#000" fill="#bf0000"/>
  <path id="svg_31" d="m443.37358,328.43407" opacity="NaN" stroke-width="0" stroke="#000" fill="#14e579"/>
 </g>

</svg>